<mxfile host="app.diagrams.net" modified="2024-06-14T13:25:59.906Z" agent="Mozilla/5.0 (X11; Linux x86_64; rv:126.0) Gecko/20100101 Firefox/126.0" version="24.5.4" etag="ALAxD1uQq--RUbAao49n" type="github">
  <diagram name="Page-1" id="IDEo-T3UfMpGDvLWl1nK">
    <mxGraphModel>
      <root>
        <mxCell id="0" />
        <mxCell id="1" parent="0" />
      </root>
    </mxGraphModel>
  </diagram>
</mxfile>
